<svg xmlns="http://www.w3.org/2000/svg" xmlns:xlink="http://www.w3.org/1999/xlink" width="150" zoomAndPan="magnify" viewBox="0 0 112.5 52.499999" height="70" preserveAspectRatio="xMidYMid meet" version="1.0"><defs><g/><clipPath id="3bdb5b5261"><path d="M 0.28125 8.472656 L 108 8.472656 L 108 43.53125 L 0.28125 43.53125 Z M 0.28125 8.472656 " clip-rule="nonzero"/></clipPath><clipPath id="121810b96b"><path d="M 0.28125 8.472656 L 107.996094 8.472656 L 107.996094 43.390625 L 0.28125 43.390625 Z M 0.28125 8.472656 " clip-rule="nonzero"/></clipPath><clipPath id="eb13a07ede"><path d="M 6.472656 11.710938 L 60.453125 11.710938 L 60.453125 40.179688 L 6.472656 40.179688 Z M 6.472656 11.710938 " clip-rule="nonzero"/></clipPath></defs><g clip-path="url(#3bdb5b5261)"><path fill="#323232" d="M 0.28125 8.472656 L 108 8.472656 L 108 43.53125 L 0.28125 43.53125 Z M 0.28125 8.472656 " fill-opacity="1" fill-rule="nonzero"/></g><g clip-path="url(#121810b96b)"><path stroke-linecap="butt" transform="matrix(0.742924, 0, 0, 0.742924, 0.28302, 8.474027)" fill="none" stroke-linejoin="miter" d="M -0.00238296 -0.00184469 L 144.985226 -0.00184469 L 144.985226 47.188139 L -0.00238296 47.188139 Z M -0.00238296 -0.00184469 " stroke="#ffffff" stroke-width="2" stroke-opacity="1" stroke-miterlimit="4"/></g><g clip-path="url(#eb13a07ede)"><path fill="#ffffff" d="M 6.472656 11.710938 L 60.453125 11.710938 L 60.453125 40.179688 L 6.472656 40.179688 Z M 6.472656 11.710938 " fill-opacity="1" fill-rule="nonzero"/></g><g fill="#323232" fill-opacity="1"><g transform="translate(13.399027, 30.380231)"><g><path d="M 6.671875 -2.109375 L 2.53125 -2.109375 L 1.765625 0 L 0.453125 0 L 3.890625 -9.46875 L 5.328125 -9.46875 L 8.75 0 L 7.4375 0 Z M 6.328125 -3.125 L 4.609375 -7.9375 L 2.875 -3.125 Z M 6.328125 -3.125 "/></g></g></g><g fill="#323232" fill-opacity="1"><g transform="translate(23.642978, 30.380231)"><g><path d="M 4.015625 -9.515625 C 5.054688 -9.515625 5.957031 -9.320312 6.71875 -8.9375 C 7.476562 -8.550781 8.054688 -8 8.453125 -7.28125 C 8.859375 -6.5625 9.0625 -5.710938 9.0625 -4.734375 C 9.0625 -3.765625 8.859375 -2.921875 8.453125 -2.203125 C 8.054688 -1.492188 7.476562 -0.945312 6.71875 -0.5625 C 5.957031 -0.1875 5.054688 0 4.015625 0 L 1.046875 0 L 1.046875 -9.515625 Z M 4.015625 -1.03125 C 5.242188 -1.03125 6.179688 -1.351562 6.828125 -2 C 7.472656 -2.65625 7.796875 -3.566406 7.796875 -4.734375 C 7.796875 -5.921875 7.46875 -6.84375 6.8125 -7.5 C 6.164062 -8.164062 5.234375 -8.5 4.015625 -8.5 L 2.296875 -8.5 L 2.296875 -1.03125 Z M 4.015625 -1.03125 "/></g></g></g><g fill="#323232" fill-opacity="1"><g transform="translate(34.337646, 30.380231)"><g><path d="M 6.0625 0 L 3.796875 -3.890625 L 2.296875 -3.890625 L 2.296875 0 L 1.046875 0 L 1.046875 -9.515625 L 4.125 -9.515625 C 4.84375 -9.515625 5.445312 -9.390625 5.9375 -9.140625 C 6.4375 -8.898438 6.804688 -8.570312 7.046875 -8.15625 C 7.296875 -7.738281 7.421875 -7.257812 7.421875 -6.71875 C 7.421875 -6.0625 7.234375 -5.484375 6.859375 -4.984375 C 6.484375 -4.484375 5.914062 -4.148438 5.15625 -3.984375 L 7.546875 0 Z M 2.296875 -4.890625 L 4.125 -4.890625 C 4.800781 -4.890625 5.304688 -5.054688 5.640625 -5.390625 C 5.972656 -5.722656 6.140625 -6.164062 6.140625 -6.71875 C 6.140625 -7.28125 5.972656 -7.71875 5.640625 -8.03125 C 5.304688 -8.34375 4.800781 -8.5 4.125 -8.5 L 2.296875 -8.5 Z M 2.296875 -4.890625 "/></g></g></g><g fill="#323232" fill-opacity="1"><g transform="translate(43.680166, 30.380231)"><g><path d="M 2.296875 -8.5 L 2.296875 -5.328125 L 5.765625 -5.328125 L 5.765625 -4.296875 L 2.296875 -4.296875 L 2.296875 -1.03125 L 6.171875 -1.03125 L 6.171875 0 L 1.046875 0 L 1.046875 -9.53125 L 6.171875 -9.53125 L 6.171875 -8.5 Z M 2.296875 -8.5 "/></g></g></g><g fill="#323232" fill-opacity="1"><g transform="translate(51.725175, 30.380231)"><g><path d="M 4.0625 0.09375 C 3.4375 0.09375 2.875 -0.015625 2.375 -0.234375 C 1.882812 -0.460938 1.5 -0.773438 1.21875 -1.171875 C 0.9375 -1.566406 0.789062 -2.023438 0.78125 -2.546875 L 2.109375 -2.546875 C 2.148438 -2.097656 2.332031 -1.71875 2.65625 -1.40625 C 2.976562 -1.101562 3.445312 -0.953125 4.0625 -0.953125 C 4.65625 -0.953125 5.125 -1.097656 5.46875 -1.390625 C 5.8125 -1.691406 5.984375 -2.078125 5.984375 -2.546875 C 5.984375 -2.910156 5.878906 -3.203125 5.671875 -3.421875 C 5.472656 -3.648438 5.222656 -3.820312 4.921875 -3.9375 C 4.628906 -4.0625 4.226562 -4.191406 3.71875 -4.328125 C 3.082031 -4.492188 2.578125 -4.65625 2.203125 -4.8125 C 1.828125 -4.976562 1.503906 -5.238281 1.234375 -5.59375 C 0.960938 -5.945312 0.828125 -6.414062 0.828125 -7 C 0.828125 -7.519531 0.957031 -7.976562 1.21875 -8.375 C 1.488281 -8.78125 1.863281 -9.09375 2.34375 -9.3125 C 2.820312 -9.53125 3.367188 -9.640625 3.984375 -9.640625 C 4.878906 -9.640625 5.609375 -9.414062 6.171875 -8.96875 C 6.742188 -8.519531 7.066406 -7.929688 7.140625 -7.203125 L 5.78125 -7.203125 C 5.726562 -7.566406 5.535156 -7.882812 5.203125 -8.15625 C 4.867188 -8.4375 4.421875 -8.578125 3.859375 -8.578125 C 3.347656 -8.578125 2.925781 -8.441406 2.59375 -8.171875 C 2.269531 -7.898438 2.109375 -7.523438 2.109375 -7.046875 C 2.109375 -6.703125 2.203125 -6.421875 2.390625 -6.203125 C 2.585938 -5.984375 2.828125 -5.816406 3.109375 -5.703125 C 3.398438 -5.585938 3.804688 -5.457031 4.328125 -5.3125 C 4.953125 -5.132812 5.457031 -4.960938 5.84375 -4.796875 C 6.226562 -4.628906 6.554688 -4.367188 6.828125 -4.015625 C 7.097656 -3.671875 7.234375 -3.195312 7.234375 -2.59375 C 7.234375 -2.125 7.109375 -1.6875 6.859375 -1.28125 C 6.617188 -0.875 6.253906 -0.539062 5.765625 -0.28125 C 5.285156 -0.03125 4.71875 0.09375 4.0625 0.09375 Z M 4.0625 0.09375 "/></g></g></g><g fill="#ffffff" fill-opacity="1"><g transform="translate(63.53747, 30.322704)"><g><path d="M 4.0625 0.09375 C 3.4375 0.09375 2.875 -0.015625 2.375 -0.234375 C 1.882812 -0.460938 1.5 -0.773438 1.21875 -1.171875 C 0.9375 -1.566406 0.789062 -2.023438 0.78125 -2.546875 L 2.109375 -2.546875 C 2.148438 -2.097656 2.332031 -1.71875 2.65625 -1.40625 C 2.976562 -1.101562 3.445312 -0.953125 4.0625 -0.953125 C 4.65625 -0.953125 5.125 -1.097656 5.46875 -1.390625 C 5.8125 -1.691406 5.984375 -2.078125 5.984375 -2.546875 C 5.984375 -2.910156 5.878906 -3.203125 5.671875 -3.421875 C 5.472656 -3.648438 5.222656 -3.820312 4.921875 -3.9375 C 4.628906 -4.0625 4.226562 -4.191406 3.71875 -4.328125 C 3.082031 -4.492188 2.578125 -4.65625 2.203125 -4.8125 C 1.828125 -4.976562 1.503906 -5.238281 1.234375 -5.59375 C 0.960938 -5.945312 0.828125 -6.414062 0.828125 -7 C 0.828125 -7.519531 0.957031 -7.976562 1.21875 -8.375 C 1.488281 -8.78125 1.863281 -9.09375 2.34375 -9.3125 C 2.820312 -9.53125 3.367188 -9.640625 3.984375 -9.640625 C 4.878906 -9.640625 5.609375 -9.414062 6.171875 -8.96875 C 6.742188 -8.519531 7.066406 -7.929688 7.140625 -7.203125 L 5.78125 -7.203125 C 5.726562 -7.566406 5.535156 -7.882812 5.203125 -8.15625 C 4.867188 -8.4375 4.421875 -8.578125 3.859375 -8.578125 C 3.347656 -8.578125 2.925781 -8.441406 2.59375 -8.171875 C 2.269531 -7.898438 2.109375 -7.523438 2.109375 -7.046875 C 2.109375 -6.703125 2.203125 -6.421875 2.390625 -6.203125 C 2.585938 -5.984375 2.828125 -5.816406 3.109375 -5.703125 C 3.398438 -5.585938 3.804688 -5.457031 4.328125 -5.3125 C 4.953125 -5.132812 5.457031 -4.960938 5.84375 -4.796875 C 6.226562 -4.628906 6.554688 -4.367188 6.828125 -4.015625 C 7.097656 -3.671875 7.234375 -3.195312 7.234375 -2.59375 C 7.234375 -2.125 7.109375 -1.6875 6.859375 -1.28125 C 6.617188 -0.875 6.253906 -0.539062 5.765625 -0.28125 C 5.285156 -0.03125 4.71875 0.09375 4.0625 0.09375 Z M 4.0625 0.09375 "/></g></g></g><g fill="#ffffff" fill-opacity="1"><g transform="translate(71.554742, 30.322704)"><g><path d="M 2.265625 -9.515625 L 2.265625 -3.5 C 2.265625 -2.644531 2.472656 -2.015625 2.890625 -1.609375 C 3.304688 -1.203125 3.878906 -1 4.609375 -1 C 5.335938 -1 5.910156 -1.203125 6.328125 -1.609375 C 6.742188 -2.015625 6.953125 -2.644531 6.953125 -3.5 L 6.953125 -9.515625 L 8.1875 -9.515625 L 8.1875 -3.515625 C 8.1875 -2.722656 8.023438 -2.054688 7.703125 -1.515625 C 7.390625 -0.972656 6.960938 -0.566406 6.421875 -0.296875 C 5.878906 -0.0351562 5.273438 0.09375 4.609375 0.09375 C 3.929688 0.09375 3.320312 -0.0351562 2.78125 -0.296875 C 2.238281 -0.566406 1.8125 -0.972656 1.5 -1.515625 C 1.1875 -2.054688 1.03125 -2.722656 1.03125 -3.515625 L 1.03125 -9.515625 Z M 2.265625 -9.515625 "/></g></g></g><g fill="#ffffff" fill-opacity="1"><g transform="translate(80.773922, 30.322704)"><g><path d="M 6.0625 0 L 3.796875 -3.890625 L 2.296875 -3.890625 L 2.296875 0 L 1.046875 0 L 1.046875 -9.515625 L 4.125 -9.515625 C 4.84375 -9.515625 5.445312 -9.390625 5.9375 -9.140625 C 6.4375 -8.898438 6.804688 -8.570312 7.046875 -8.15625 C 7.296875 -7.738281 7.421875 -7.257812 7.421875 -6.71875 C 7.421875 -6.0625 7.234375 -5.484375 6.859375 -4.984375 C 6.484375 -4.484375 5.914062 -4.148438 5.15625 -3.984375 L 7.546875 0 Z M 2.296875 -4.890625 L 4.125 -4.890625 C 4.800781 -4.890625 5.304688 -5.054688 5.640625 -5.390625 C 5.972656 -5.722656 6.140625 -6.164062 6.140625 -6.71875 C 6.140625 -7.28125 5.972656 -7.71875 5.640625 -8.03125 C 5.304688 -8.34375 4.800781 -8.5 4.125 -8.5 L 2.296875 -8.5 Z M 2.296875 -4.890625 "/></g></g></g><g fill="#ffffff" fill-opacity="1"><g transform="translate(89.078011, 30.322704)"><g><path d="M 2.296875 -8.5 L 2.296875 -5.328125 L 5.765625 -5.328125 L 5.765625 -4.296875 L 2.296875 -4.296875 L 2.296875 -1.03125 L 6.171875 -1.03125 L 6.171875 0 L 1.046875 0 L 1.046875 -9.53125 L 6.171875 -9.53125 L 6.171875 -8.5 Z M 2.296875 -8.5 "/></g></g></g></svg>